Coordinates
version=1
nRows=14
nColumns=28
inDegrees=yes

Units are S.I. units (second, meters, Newtons, ...)
Angles are in degrees.

endheader
time	pelvis_tilt	pelvis_list	pelvis_rotation	pelvis_tx	pelvis_ty	pelvis_tz	hip_flexion_r	hip_adduction_r	hip_rotation_r	knee_angle_r	ankle_angle_r	subtalar_angle_r	mtp_angle_r	hip_flexion_l	hip_adduction_l	hip_rotation_l	knee_angle_l	socket_flexion	socket_adduction	socket_rotation	socket_tx	socket_ty	socket_tz	foot_flex	lumbar_extension	lumbar_bending	lumbar_rotation
      0.00000000	      0.47179980	     -9.62918665	    -12.57388679	     -0.85607431	      0.98744287	      0.33193431	    -22.99457797	      8.33783463	     11.45907621	    -10.24522513	      7.85222059	     -8.43004706	     25.82611241	     25.77735064	    -15.78215943	      8.70369844	     -5.33732701	     -1.21085557	      0.00000000	      0.00000000	      0.00000000	      0.00000000	      0.00000000	      2.51532972	    -13.46397350	      6.83586801	     19.76927237
      0.00416667	      0.39809797	     -9.66893947	    -12.48678782	     -0.85099402	      0.98674792	      0.33132093	    -23.10957354	      8.34788645	     11.53447448	    -10.40075348	      7.82255236	     -8.41289802	     25.83178950	     25.66112992	    -15.70879538	      8.71708856	     -5.35345528	     -1.21821770	      0.00000000	      0.00000000	      0.00000000	      0.00000000	      0.00000000	      2.45192210	    -13.32238974	      6.89932324	     19.78240945
      0.00833333	      0.28016884	     -9.76438657	    -12.48215464	     -0.84588719	      0.98609750	      0.33078584	    -23.09500530	      8.40526089	     11.60442903	    -10.73305871	      7.59136450	     -8.39224817	     25.83785110	     25.50950541	    -15.74717951	      8.79532813	     -5.23015567	     -1.20422985	      0.00000000	      0.00000000	      0.00000000	      0.00000000	      0.00000000	      2.04771542	    -13.20844185	      7.02842864	     19.81568471
      0.01250000	      0.20077781	     -9.80706953	    -12.42028688	     -0.84038642	      0.98542002	      0.33017566	    -23.18557590	      8.40288696	     11.65723701	    -10.94315637	      7.52274146	     -8.38862995	     25.83944071	     25.35909317	    -15.68636674	      8.80719079	     -5.24043374	     -1.21225875	      0.00000000	      0.00000000	      0.00000000	      0.00000000	      0.00000000	      1.98288844	    -13.05080122	      7.10215077	     19.82106892
      0.01666667	      0.05491001	     -9.89212697	    -12.48587398	     -0.83501110	      0.98477729	      0.32963919	    -23.03468427	      8.42880768	     11.63735370	    -11.50361369	      7.10352868	     -8.42691293	     25.83741733	     25.17145296	    -15.74178862	      8.81579886	     -5.03592065	     -1.15034146	      0.00000000	      0.00000000	      0.00000000	      0.00000000	      0.00000000	      1.58417420	    -12.92389910	      7.22453894	     19.82145642
      0.02083333	     -0.10249644	     -9.91955233	    -12.52635997	     -0.82933532	      0.98410430	      0.32913240	    -22.92839561	      8.40306797	     11.64736779	    -11.94624627	      6.78196253	     -8.46896891	     25.87599669	     24.99961748	    -15.72938517	      8.80853022	     -4.85547941	     -1.03343448	      0.00000000	      0.00000000	      0.00000000	      0.00000000	      0.00000000	      1.36763055	    -12.71269230	      7.28817809	     19.83165860
      0.02500000	     -0.18459453	     -9.94180275	    -12.45344364	     -0.82340093	      0.98345748	      0.32844532	    -23.01551178	      8.37833616	     11.72107425	    -12.17720436	      6.71141550	     -8.46498278	     25.88261795	     24.82986302	    -15.63477283	      8.83581274	     -4.87051419	     -1.03886556	      0.00000000	      0.00000000	      0.00000000	      0.00000000	      0.00000000	      1.30558987	    -12.53246346	      7.35158445	     19.83440809
      0.02916667	     -0.25921575	     -9.95414932	    -12.38406879	     -0.81740464	      0.98288470	      0.32774067	    -23.07227531	      8.34491400	     11.80446656	    -12.47319755	      6.59447977	     -8.46189380	     25.88257545	     24.64164203	    -15.52962041	      8.88530987	     -4.87992306	     -1.04678982	      0.00000000	      0.00000000	      0.00000000	      0.00000000	      0.00000000	      1.19018409	    -12.35150535	      7.40211130	     19.82860857
      0.03333333	     -0.72825200	     -9.74520120	    -12.66361151	     -0.81117301	      0.98203003	      0.32772985	    -22.42923261	      8.09910197	     11.69030801	    -13.26044920	      5.70418442	     -8.66230618	     26.53703430	     24.39367627	    -15.48386087	      8.70231252	     -3.78075339	     -0.38900608	      0.00000000	      0.00000000	      0.00000000	      0.00000000	      0.00000000	      0.74196829	    -11.72415003	      7.21716998	     19.86827023
      0.03750000	     -0.78491899	     -9.75863613	    -12.57565903	     -0.80503156	      0.98154148	      0.32692825	    -22.51902588	      8.05953234	     11.78499351	    -13.51136625	      5.63215168	     -8.65185556	     26.54276861	     24.20192018	    -15.35961716	      8.74920452	     -3.84316541	     -0.38286598	      0.00000000	      0.00000000	      0.00000000	      0.00000000	      0.00000000	      0.68085109	    -11.55481887	      7.28277602	     19.86721266
      0.04166667	     -0.82907127	     -9.67204612	    -12.59266651	     -0.79926916	      0.98118321	      0.32632245	    -22.34354274	      7.91658750	     11.78114662	    -14.24131957	      5.09528720	     -8.69108380	     26.55070819	     23.94860147	    -15.19811136	      8.82500046	     -3.79079356	     -0.39278622	      0.00000000	      0.00000000	      0.00000000	      0.00000000	      0.00000000	      0.26484574	    -11.51573461	      7.14886850	     19.78453431
      0.04583333	     -0.88003946	     -9.65764028	    -12.49039054	     -0.79298429	      0.98082505	      0.32551891	    -22.40248690	      7.85638128	     11.86502078	    -14.54880534	      4.96661822	     -8.68682215	     26.55577772	     23.74010515	    -15.04619922	      8.86055994	     -3.83645974	     -0.38753573	      0.00000000	      0.00000000	      0.00000000	      0.00000000	      0.00000000	      0.20928052	    -11.31991646	      7.19731235	     19.77408849
      0.05000000	     -1.02463442	     -9.19794958	    -12.66683452	     -0.78636104	      0.98040064	      0.32537416	    -21.94434190	      7.25234155	     11.22315392	    -15.42769789	      3.76116725	     -8.46318229	     29.11889926	     23.09018090	    -14.65698534	      8.53078626	     -2.56157331	      0.41581359	      0.00000000	      0.00000000	      0.00000000	      0.00000000	      0.00000000	     -0.13280826	    -10.93251271	      6.67455376	     19.60254550
      0.05416667	     -1.01645959	     -9.04608354	    -12.62014924	     -0.78024710	      0.98021040	      0.32466264	    -21.86776802	      7.03744379	     11.17009145	    -16.00895316	      3.24692673	     -8.54582890	     29.14752165	     22.84557038	    -14.37988380	      8.50735818	     -2.68769764	      0.38738829	      0.00000000	      0.00000000	      0.00000000	      0.00000000	      0.00000000	     -0.31731988	    -10.81819687	      6.48978373	     19.55005720
